<svg width="245" height="96" viewBox="0 0 245 96" fill="none" xmlns="http://www.w3.org/2000/svg">
<path d="M8 52V80C8 84.4184 11.5817 88 16 88H28V44H16C11.5817 44 8 47.5816 8 52Z" fill="#3C6CEB"/>
<path d="M28 88V44M8 52V80C8 84.4184 11.5817 88 16 88H69.7048C75.628 88 80.6648 83.6788 81.5656 77.8248L85.8732 49.8248C86.9916 42.5556 81.3672 36 74.0128 36H60C57.7908 36 56 34.2091 56 32V17.8634C56 12.416 51.584 8 46.1368 8C44.8372 8 43.66 8.7652 43.1324 9.95248L29.0558 41.6244C28.4138 43.0692 26.9813 44 25.4005 44H16C11.5817 44 8 47.5816 8 52Z" stroke="#121F3E" stroke-width="5" stroke-linecap="round" stroke-linejoin="round"/>
<path d="M237 44V16C237 11.5816 233.418 8 229 8H217V52H229C233.418 52 237 48.4184 237 44Z" fill="#3C6CEB"/>
<path d="M217 8V52M237 44V16C237 11.5816 233.418 8 229 8H175.295C169.372 8 164.335 12.3212 163.434 18.1752L159.127 46.1752C158.008 53.4444 163.633 60 170.987 60H185C187.209 60 189 61.7909 189 64V78.1366C189 83.584 193.416 88 198.863 88C200.163 88 201.34 87.2348 201.868 86.0475L215.944 54.3756C216.586 52.9308 218.019 52 219.599 52H229C233.418 52 237 48.4184 237 44Z" stroke="#121F3E" stroke-width="5" stroke-linecap="round" stroke-linejoin="round"/>
</svg>
