<svg width="20" height="20" viewBox="0 0 20 20" fill="none" xmlns="http://www.w3.org/2000/svg">
<g id="alarm-clock.3 1">
<path id="Vector" opacity="0.12" d="M9.99998 17.5C11.7681 17.5 13.4638 16.7976 14.7141 15.5474C15.9642 14.2972 16.6666 12.6014 16.6666 10.8333C16.6666 9.06524 15.9642 7.36952 14.7141 6.11928C13.4638 4.86903 11.7681 4.16666 9.99998 4.16666C8.23187 4.16666 6.53618 4.86903 5.28594 6.11928C4.03569 7.36952 3.33331 9.06524 3.33331 10.8333C3.33331 12.6014 4.03569 14.2972 5.28594 15.5474C6.53618 16.7976 8.23187 17.5 9.99998 17.5Z" fill="#121F3E"/>
<path id="Vector_2" d="M4.16669 2.5L1.66669 5M18.3334 5L15.8334 2.5M5.00002 15.8333L3.33335 17.5M15 15.8333L16.6667 17.5M10 7.5V10.8333L11.6667 12.5M10 17.5C11.7681 17.5 13.4639 16.7976 14.7141 15.5474C15.9643 14.2972 16.6667 12.6014 16.6667 10.8333C16.6667 9.06525 15.9643 7.36953 14.7141 6.11929C13.4639 4.86904 11.7681 4.16667 10 4.16667C8.23191 4.16667 6.53622 4.86904 5.28598 6.11929C4.03573 7.36953 3.33335 9.06525 3.33335 10.8333C3.33335 12.6014 4.03573 14.2972 5.28598 15.5474C6.53622 16.7976 8.23191 17.5 10 17.5Z" stroke="#121F3E" stroke-width="1.5" stroke-linecap="round" stroke-linejoin="round"/>
</g>
</svg>
