<svg width="19" height="18" viewBox="0 0 19 18" fill="none" xmlns="http://www.w3.org/2000/svg">
<g id="bar-line-chart.3 1">
<g id="Group" opacity="0.12">
<path id="Vector" d="M16.5099 4.82951C16.9491 5.26885 16.9491 5.98115 16.5099 6.4205C16.0705 6.85984 15.3582 6.85984 14.9188 6.4205C14.4795 5.98115 14.4795 5.26885 14.9188 4.82951C15.3582 4.39016 16.0705 4.39016 16.5099 4.82951Z" fill="#121F3E"/>
<path id="Vector_2" d="M4.50985 7.07951C4.94919 7.51883 4.94919 8.23118 4.50985 8.67053C4.07051 9.1098 3.3582 9.1098 2.91886 8.67053C2.47952 8.23118 2.47952 7.51883 2.91886 7.07951C3.3582 6.64016 4.07051 6.64016 4.50985 7.07951Z" fill="#121F3E"/>
<path id="Vector_3" d="M10.5099 2.57951C10.9491 3.01885 10.9491 3.73115 10.5099 4.1705C10.0705 4.60984 9.35816 4.60984 8.91881 4.1705C8.47954 3.73115 8.47954 3.01885 8.91881 2.57951C9.35816 2.14016 10.0705 2.14016 10.5099 2.57951Z" fill="#121F3E"/>
</g>
<path id="Vector_4" d="M15.7144 15V9.75M9.71436 15V7.5M3.71436 15V12M10.7694 3.77063L14.6457 5.22425M8.81346 4.05069L4.61453 7.19987M16.5099 4.82951C16.9492 5.26885 16.9492 5.98115 16.5099 6.4205C16.0705 6.85984 15.3582 6.85984 14.9188 6.4205C14.4796 5.98115 14.4796 5.26885 14.9188 4.82951C15.3582 4.39016 16.0705 4.39016 16.5099 4.82951ZM4.50985 7.07951C4.94919 7.51883 4.94919 8.23118 4.50985 8.67053C4.07051 9.1098 3.3582 9.1098 2.91886 8.67053C2.47952 8.23118 2.47952 7.51883 2.91886 7.07951C3.3582 6.64016 4.07051 6.64016 4.50985 7.07951ZM10.5099 2.57951C10.9492 3.01885 10.9492 3.73115 10.5099 4.1705C10.0705 4.60984 9.35818 4.60984 8.91883 4.1705C8.47956 3.73115 8.47956 3.01885 8.91883 2.57951C9.35818 2.14016 10.0705 2.14016 10.5099 2.57951Z" stroke="#121F3E" stroke-width="1.5" stroke-linecap="round" stroke-linejoin="round"/>
</g>
</svg>
