<svg width="19" height="18" viewBox="0 0 19 18" fill="none" xmlns="http://www.w3.org/2000/svg">
<g id="diamond-01.3 1">
<g id="Group" opacity="0.12">
<path id="Vector" d="M9.57153 15.375L6.57153 6.75H12.5715L9.57153 15.375Z" fill="#121F3E"/>
<path id="Vector_2" d="M8.07153 2.25H5.82153L2.07153 6.75H6.57153L8.07153 2.25Z" fill="#121F3E"/>
<path id="Vector_3" d="M11.0715 2.25H13.3215L17.0715 6.75H12.5715L11.0715 2.25Z" fill="#121F3E"/>
</g>
<path id="Vector_4" d="M2.44643 6.75H16.6964M8.07141 2.25L6.57143 6.75L9.57141 15.375L12.5714 6.75L11.0714 2.25M10.0324 15.1969L16.7513 7.13411C16.8652 6.99746 16.9222 6.92914 16.9439 6.85288C16.9631 6.78563 16.9631 6.71437 16.9439 6.64712C16.9222 6.57086 16.8652 6.50254 16.7513 6.36589L13.5013 2.46589C13.4352 2.38653 13.4021 2.34685 13.3616 2.31833C13.3257 2.29306 13.2856 2.27428 13.2432 2.26288C13.1953 2.25 13.1437 2.25 13.0404 2.25H6.10245C5.99916 2.25 5.94751 2.25 5.89965 2.26288C5.85724 2.27428 5.81717 2.29306 5.78125 2.31833C5.74072 2.34685 5.70765 2.38653 5.64153 2.46589L2.39152 6.36589C2.27766 6.50253 2.22072 6.57086 2.19896 6.64712C2.17977 6.71437 2.17977 6.78563 2.19896 6.85287C2.22072 6.92914 2.27766 6.99746 2.39152 7.13411L9.11046 15.1969C9.26879 15.3869 9.34791 15.4818 9.44271 15.5165C9.52581 15.5468 9.61701 15.5468 9.70019 15.5165C9.79491 15.4818 9.87404 15.3869 10.0324 15.1969Z" stroke="#121F3E" stroke-width="1.5" stroke-linecap="round" stroke-linejoin="round"/>
</g>
</svg>
