<svg width="20" height="20" viewBox="0 0 20 20" fill="none" xmlns="http://www.w3.org/2000/svg">
<g id="eye.3 1">
<path id="Vector" d="M10 12.5C11.3807 12.5 12.5 11.3807 12.5 10C12.5 8.61925 11.3807 7.5 10 7.5C8.61925 7.5 7.5 8.61925 7.5 10C7.5 11.3807 8.61925 12.5 10 12.5Z" stroke="#96A0B5" stroke-width="1.5" stroke-linecap="round" stroke-linejoin="round"/>
<path id="Vector_2" d="M2.01646 10.5943C1.90297 10.4146 1.84623 10.3247 1.81446 10.1862C1.79061 10.0821 1.79061 9.91791 1.81446 9.81382C1.84623 9.67524 1.90297 9.58541 2.01646 9.40566C2.9543 7.92069 5.74586 4.16666 10 4.16666C14.2542 4.16666 17.0458 7.92069 17.9836 9.40566C18.0971 9.58541 18.1539 9.67524 18.1856 9.81382C18.2094 9.91791 18.2094 10.0821 18.1856 10.1862C18.1539 10.3247 18.0971 10.4146 17.9836 10.5943C17.0458 12.0793 14.2542 15.8333 10 15.8333C5.74586 15.8333 2.9543 12.0793 2.01646 10.5943Z" stroke="#96A0B5" stroke-width="1.5" stroke-linecap="round" stroke-linejoin="round"/>
<path id="Vector_3" d="M9.99999 12.5C11.3807 12.5 12.5 11.3807 12.5 10C12.5 8.61925 11.3807 7.5 9.99999 7.5C8.61933 7.5 7.5 8.61925 7.5 10C7.5 11.3807 8.61933 12.5 9.99999 12.5Z" stroke="#96A0B5" stroke-width="1.5" stroke-linecap="round" stroke-linejoin="round"/>
</g>
</svg>
