<svg width="48" height="48" viewBox="0 0 48 48" fill="none" xmlns="http://www.w3.org/2000/svg">
<g id="file-plus-02.3 1">
<path id="Vector" d="M18.5 33.5V14.5H29.5V17.707L18.5136 33.5H18.5ZM33.5698 14.5554C33.5696 14.5556 33.5604 14.5546 33.543 14.5521C33.5613 14.554 33.57 14.5553 33.5698 14.5554ZM18.5554 10.4301C18.5556 10.4304 18.5546 10.4396 18.5521 10.457C18.554 10.4386 18.5553 10.4299 18.5554 10.4301ZM14.4301 14.5554C14.4299 14.5553 14.4386 14.554 14.457 14.5521C14.4396 14.5546 14.4304 14.5556 14.4301 14.5554ZM14.4571 33.4479C14.4387 33.446 14.43 33.4447 14.4302 33.4446C14.4305 33.4444 14.4397 33.4454 14.4571 33.4479ZM29.4479 10.4571C29.4454 10.4397 29.4444 10.4305 29.4446 10.4302C29.4447 10.43 29.446 10.4387 29.4479 10.4571Z" stroke="#3C6CEB" stroke-opacity="0.1" stroke-width="21" stroke-linecap="round" stroke-linejoin="round"/>
<path id="Vector_2" d="M40 21V13.6C40 10.2397 40 8.55952 39.346 7.27606C38.7708 6.14708 37.853 5.2292 36.724 4.65396C35.4404 4 33.7604 4 30.4 4H17.6C14.2397 4 12.5595 4 11.2761 4.65396C10.1471 5.2292 9.2292 6.14708 8.65396 7.27606C8 8.55952 8 10.2397 8 13.6V34.4C8 37.7604 8 39.4404 8.65396 40.724C9.2292 41.853 10.1471 42.7708 11.2761 43.346C12.5595 44 14.2397 44 17.6 44H24" stroke="#121F3E" stroke-width="3" stroke-linecap="round" stroke-linejoin="round"/>
<path id="Vector_3" d="M28 22H16M20 30H16M32 14H16" stroke="#3C6CEB" stroke-width="3" stroke-linecap="round" stroke-linejoin="round"/>
<path id="Vector_4" d="M36 42V30M30 36H42" stroke="#3C6CEB" stroke-width="3" stroke-linecap="round" stroke-linejoin="round"/>
</g>
</svg>
