<svg width="20" height="20" viewBox="0 0 20 20" fill="none" xmlns="http://www.w3.org/2000/svg">
<g id="flag-02.3 1">
<path id="Vector" opacity="0.12" d="M3.33331 12.5C3.33331 12.5 4.16665 11.6667 6.66665 11.6667C9.16665 11.6667 10.8333 13.3333 13.3333 13.3333C15.8333 13.3333 16.6666 12.5 16.6666 12.5V3.33333C16.6666 3.33333 15.8333 4.16667 13.3333 4.16667C10.8333 4.16667 9.16665 2.5 6.66665 2.5C4.16665 2.5 3.33331 3.33333 3.33331 3.33333V12.5Z" fill="#3C6CEB"/>
<path id="Vector_2" d="M3.33331 12.5C3.33331 12.5 4.16665 11.6666 6.66665 11.6666C9.16665 11.6666 10.8333 13.3333 13.3333 13.3333C15.8333 13.3333 16.6666 12.5 16.6666 12.5V3.33329C16.6666 3.33329 15.8333 4.16663 13.3333 4.16663C10.8333 4.16663 9.16665 2.49996 6.66665 2.49996C4.16665 2.49996 3.33331 3.33329 3.33331 3.33329M3.33331 18.3333V1.66663" stroke="#121F3E" stroke-width="1.5" stroke-linecap="round" stroke-linejoin="round"/>
</g>
</svg>
