<svg width="20" height="20" viewBox="0 0 20 20" fill="none" xmlns="http://www.w3.org/2000/svg">
<g id="git-branch-01.3 1">
<g id="Group" opacity="0.12">
<path id="Vector" opacity="0.12" d="M15 9.16666C16.3807 9.16666 17.5 8.04736 17.5 6.66666C17.5 5.28595 16.3807 4.16666 15 4.16666C13.6192 4.16666 12.5 5.28595 12.5 6.66666C12.5 8.04736 13.6192 9.16666 15 9.16666Z" fill="#121F3E"/>
<path id="Vector_2" opacity="0.12" d="M15 17.5C16.3807 17.5 17.5 16.3807 17.5 15C17.5 13.6192 16.3807 12.5 15 12.5C13.6192 12.5 12.5 13.6192 12.5 15C12.5 16.3807 13.6192 17.5 15 17.5Z" fill="#121F3E"/>
</g>
<path id="Vector_3" d="M2.5 2.5V11C2.5 12.4002 2.5 13.1002 2.77248 13.635C3.01217 14.1054 3.39462 14.4878 3.86503 14.7275C4.3998 15 5.09987 15 6.5 15H12.5M12.5 15C12.5 16.3807 13.6192 17.5 15 17.5C16.3807 17.5 17.5 16.3807 17.5 15C17.5 13.6192 16.3807 12.5 15 12.5C13.6192 12.5 12.5 13.6192 12.5 15ZM2.5 6.66667H12.5M12.5 6.66667C12.5 8.04738 13.6192 9.16667 15 9.16667C16.3807 9.16667 17.5 8.04737 17.5 6.66667C17.5 5.28596 16.3807 4.16667 15 4.16667C13.6192 4.16667 12.5 5.28596 12.5 6.66667Z" stroke="#121F3E" stroke-width="1.5" stroke-linecap="round" stroke-linejoin="round"/>
</g>
</svg>
