<svg width="20" height="20" viewBox="0 0 20 20" fill="none" xmlns="http://www.w3.org/2000/svg">
<g id="lightning-01.3 1">
<path id="Vector" opacity="0.12" d="M10.2283 15.888L10.7443 11.7597L10.8497 10.9167H10.0001H4.1014L9.77191 4.11204L9.25588 8.24033L9.1505 9.08335H10.0001H15.8988L10.2283 15.888Z" fill="#121F3E" stroke="#96A0B5" stroke-width="1.5"/>
<path id="Vector_2" d="M10.8333 1.66669L3.41118 10.5733C3.12051 10.922 2.97517 11.0964 2.97295 11.2438C2.97101 11.3718 3.02808 11.4936 3.12768 11.5741C3.24226 11.6667 3.46928 11.6667 3.92333 11.6667H9.99998L9.16665 18.3334L16.5887 9.42677C16.8794 9.07802 17.0247 8.9036 17.027 8.75627C17.0289 8.62827 16.9719 8.50644 16.8722 8.42594C16.7576 8.33335 16.5306 8.33335 16.0766 8.33335H9.99998L10.8333 1.66669Z" stroke="#96A0B5" stroke-width="1.5" stroke-linecap="round" stroke-linejoin="round"/>
</g>
</svg>
