<svg width="20" height="21" viewBox="0 0 20 21" fill="none" xmlns="http://www.w3.org/2000/svg">
<g id="message-text-circle-02.3 1">
<path id="Vector" opacity="0.12" d="M7.46175 16.7567L7.46183 16.7567C8.24435 17.0746 9.10078 17.25 10 17.25C13.728 17.25 16.75 14.228 16.75 10.5C16.75 6.77208 13.728 3.75 10 3.75C6.27208 3.75 3.25 6.77208 3.25 10.5C3.25 11.3992 3.42545 12.2556 3.74326 13.0382L3.74328 13.0383C3.74822 13.0504 3.75326 13.0628 3.75836 13.0753C3.80985 13.2015 3.86745 13.3427 3.89682 13.4736L7.46175 16.7567ZM7.46175 16.7567C7.44958 16.7517 7.43723 16.7467 7.42474 16.7416C7.29855 16.6901 7.15726 16.6325 7.02617 16.6031L7.02612 16.6031M7.46175 16.7567L7.02612 16.6031M7.02612 16.6031C6.90666 16.5764 6.80296 16.5648 6.68011 16.5648C6.54606 16.5648 6.41024 16.5877 6.29332 16.6074C6.2828 16.6092 6.27244 16.6109 6.26224 16.6126C6.2622 16.6126 6.26217 16.6126 6.26214 16.6126L3.41241 17.0876L3.88739 14.2378L3.8874 14.2377M7.02612 16.6031L3.8874 14.2377M3.8874 14.2377C3.88913 14.2273 3.89091 14.2167 3.89273 14.206M3.8874 14.2377L3.89273 14.206M3.89273 14.206C3.91233 14.0895 3.93519 13.9536 3.93518 13.8198M3.89273 14.206L3.93518 13.8198M3.93518 13.8198C3.93516 13.6971 3.92368 13.5934 3.89682 13.4736L3.93518 13.8198ZM2.98705 17.1515C2.9871 17.1515 2.9887 17.1514 2.99167 17.1514C2.98848 17.1516 2.98699 17.1515 2.98705 17.1515ZM3.34855 17.5084C3.3486 17.5114 3.34854 17.513 3.34849 17.5131C3.34844 17.5131 3.34841 17.5116 3.34855 17.5084Z" fill="#121F3E" stroke="#121F3E" stroke-width="1.5"/>
<path id="Vector_2" d="M6.66667 8.41667H10M6.66667 11.3333H12.5M10 18C14.1422 18 17.5 14.6422 17.5 10.5C17.5 6.35787 14.1422 3 10 3C5.85787 3 2.5 6.35787 2.5 10.5C2.5 11.4976 2.69478 12.4497 3.04838 13.3204C3.11606 13.4871 3.1499 13.5704 3.165 13.6377C3.17977 13.7036 3.18517 13.7523 3.18518 13.8199C3.18518 13.8889 3.17265 13.9641 3.14759 14.1145L2.65344 17.0793C2.60169 17.3898 2.57582 17.5451 2.62397 17.6573C2.66611 17.7556 2.7444 17.8339 2.84265 17.876C2.95491 17.9242 3.11015 17.8983 3.42063 17.8466L6.38554 17.3524C6.53591 17.3273 6.61108 17.3148 6.68011 17.3148C6.74763 17.3148 6.79638 17.3202 6.86227 17.335C6.92962 17.3501 7.01293 17.3839 7.17957 17.4516C8.05025 17.8052 9.00242 18 10 18Z" stroke="#121F3E" stroke-width="1.5" stroke-linecap="round" stroke-linejoin="round"/>
</g>
</svg>
