<svg width="20" height="20" viewBox="0 0 20 20" fill="none" xmlns="http://www.w3.org/2000/svg">
<g id="message-smile-circle.3 1">
<path id="Vector" opacity="0.12" d="M8.1404 15.4955L8.14073 15.4956C8.84605 15.7674 9.61305 15.9167 10.4168 15.9167C13.9145 15.9167 16.7501 13.0811 16.7501 9.58333C16.7501 6.08553 13.9145 3.25 10.4168 3.25C6.91896 3.25 4.08343 6.08553 4.08343 9.58333C4.08343 10.2925 4.1997 10.973 4.41361 11.6076C4.42029 11.6274 4.42711 11.6475 4.434 11.6678C4.50243 11.8692 4.57811 12.0919 4.59395 12.292L4.59395 12.292C4.60846 12.4754 4.59537 12.6291 4.54998 12.8074L8.1404 15.4955ZM8.1404 15.4955C8.12966 15.4913 8.11876 15.4871 8.10773 15.4828C7.9987 15.4407 7.87691 15.3936 7.76556 15.3679L7.76515 15.3679L8.1404 15.4955ZM7.11178 15.3498L7.11193 15.3498C7.12085 15.3489 7.12992 15.3479 7.13913 15.347C7.23921 15.3365 7.35571 15.3243 7.46967 15.3286C7.46987 15.3286 7.47007 15.3286 7.47027 15.3286L7.44164 16.0781L7.11178 15.3498ZM7.11178 15.3498L3.0011 15.7748M7.11178 15.3498L3.0011 15.7748M3.0011 15.7748L4.28919 13.3905C4.28919 13.3905 4.2892 13.3905 4.2892 13.3905C4.29701 13.376 4.30498 13.3614 4.31308 13.3465C4.39994 13.1866 4.50057 13.0015 4.54995 12.8075L3.0011 15.7748Z" fill="#121F3E" stroke="#121F3E" stroke-width="1.5"/>
<path id="Vector_2" d="M7.50009 11.6667C7.50009 11.6667 8.59383 12.9167 10.4168 12.9167C12.2397 12.9167 13.3334 11.6667 13.3334 11.6667M12.7084 7.5H12.7168M8.12509 7.5H8.13343M10.4168 16.6667C14.3288 16.6667 17.5001 13.4953 17.5001 9.58333C17.5001 5.67132 14.3288 2.5 10.4168 2.5C6.50474 2.5 3.33343 5.67132 3.33343 9.58333C3.33343 10.375 3.4633 11.1363 3.7029 11.8472C3.79307 12.1147 3.83815 12.2484 3.84628 12.3512C3.85432 12.4527 3.84824 12.5238 3.82314 12.6224C3.79772 12.7223 3.74159 12.8263 3.62934 13.034L2.26629 15.557C2.07187 15.9168 1.97465 16.0968 1.99641 16.2357C2.01536 16.3566 2.08655 16.4631 2.19108 16.5268C2.31108 16.6001 2.51451 16.579 2.92138 16.537L7.1889 16.0958C7.31813 16.0825 7.38275 16.0758 7.44164 16.0781C7.49958 16.0803 7.54047 16.0858 7.59696 16.0988C7.65439 16.112 7.72661 16.1398 7.87106 16.1954C8.66108 16.4998 9.51942 16.6667 10.4168 16.6667ZM13.1251 7.5C13.1251 7.73012 12.9386 7.91667 12.7084 7.91667C12.4783 7.91667 12.2918 7.73012 12.2918 7.5C12.2918 7.26988 12.4783 7.08333 12.7084 7.08333C12.9386 7.08333 13.1251 7.26988 13.1251 7.5ZM8.54175 7.5C8.54175 7.73012 8.35525 7.91667 8.12509 7.91667C7.89498 7.91667 7.70843 7.73012 7.70843 7.5C7.70843 7.26988 7.89498 7.08333 8.12509 7.08333C8.35525 7.08333 8.54175 7.26988 8.54175 7.5Z" stroke="#121F3E" stroke-width="1.5" stroke-linecap="round" stroke-linejoin="round"/>
</g>
</svg>
