<svg width="19" height="18" viewBox="0 0 19 18" fill="none" xmlns="http://www.w3.org/2000/svg">
<g id="music-note-01.3 1">
<g id="Group" opacity="0.12">
<path id="Vector" d="M4.64282 15.75C5.88546 15.75 6.89282 14.7427 6.89282 13.5C6.89282 12.2573 5.88546 11.25 4.64282 11.25C3.40018 11.25 2.39282 12.2573 2.39282 13.5C2.39282 14.7427 3.40018 15.75 4.64282 15.75Z" fill="#121F3E"/>
<path id="Vector_2" d="M13.6428 14.25C14.8855 14.25 15.8928 13.2427 15.8928 12C15.8928 10.7573 14.8855 9.75 13.6428 9.75C12.4001 9.75 11.3928 10.7573 11.3928 12C11.3928 13.2427 12.4001 14.25 13.6428 14.25Z" fill="#121F3E"/>
</g>
<path id="Vector_3" d="M6.89282 13.5V4.76653C6.89282 4.40537 6.89282 4.22479 6.95852 4.07833C7.01644 3.94924 7.1097 3.83915 7.22752 3.7608C7.36119 3.67191 7.53931 3.64222 7.89557 3.58285L14.4956 2.48285C14.9762 2.40273 15.2166 2.36267 15.404 2.43225C15.5684 2.49331 15.7061 2.61004 15.7934 2.76214C15.8928 2.93548 15.8928 3.17917 15.8928 3.66652V12M6.89282 13.5C6.89282 14.7426 5.88546 15.75 4.64282 15.75C3.40018 15.75 2.39282 14.7426 2.39282 13.5C2.39282 12.2573 3.40018 11.25 4.64282 11.25C5.88546 11.25 6.89282 12.2573 6.89282 13.5ZM15.8928 12C15.8928 13.2426 14.8855 14.25 13.6428 14.25C12.4001 14.25 11.3928 13.2426 11.3928 12C11.3928 10.7573 12.4001 9.75 13.6428 9.75C14.8855 9.75 15.8928 10.7573 15.8928 12Z" stroke="#121F3E" stroke-width="1.5" stroke-linecap="round" stroke-linejoin="round"/>
</g>
</svg>
