<svg width="19" height="18" viewBox="0 0 19 18" fill="none" xmlns="http://www.w3.org/2000/svg">
<g id="notification-text.3 1">
<path id="Vector" opacity="0.12" d="M14.8463 3.43935C15.4321 4.02513 15.4321 4.97487 14.8463 5.56065C14.2605 6.14644 13.3108 6.14644 12.725 5.56065C12.1392 4.97487 12.1392 4.02513 12.725 3.43935C13.3108 2.85355 14.2605 2.85355 14.8463 3.43935Z" fill="#121F3E" stroke="#121F3E" stroke-width="1.5"/>
<path id="Vector_2" d="M10.0356 12.75H5.53564M11.5356 9.75H5.53564M8.53564 3H6.13564C4.87552 3 4.24546 3 3.76417 3.24523C3.3408 3.46095 2.99659 3.80515 2.78088 4.22852C2.53564 4.70982 2.53564 5.33988 2.53564 6.6V12.15C2.53564 13.4101 2.53564 14.0401 2.78088 14.5215C2.99659 14.9449 3.3408 15.289 3.76417 15.5047C4.24546 15.75 4.87552 15.75 6.13564 15.75H11.6856C12.9458 15.75 13.5758 15.75 14.0571 15.5047C14.4805 15.289 14.8247 14.9449 15.0404 14.5215C15.2856 14.0401 15.2856 13.4101 15.2856 12.15V9.75M15.3766 2.90901C16.2553 3.78769 16.2553 5.21231 15.3766 6.09099C14.4979 6.96967 13.0734 6.96967 12.1947 6.09099C11.316 5.21231 11.316 3.78769 12.1947 2.90901C13.0734 2.03033 14.4979 2.03033 15.3766 2.90901Z" stroke="#121F3E" stroke-width="1.5" stroke-linecap="round" stroke-linejoin="round"/>
</g>
</svg>
