<svg width="18" height="18" viewBox="0 0 18 18" fill="none" xmlns="http://www.w3.org/2000/svg">
<g id="palette.3 1" clip-path="url(#clip0_199_1704)">
<path id="Vector" opacity="0.12" d="M9 15.75C5.27208 15.75 2.25 12.7279 2.25 9C2.25 5.27208 5.27208 2.25 9 2.25C12.7279 2.25 15.75 5.27208 15.75 9C15.75 9.82846 15.0785 10.5 14.25 10.5H13.875C13.8576 10.5 13.8404 10.5 13.8234 10.5C13.5254 10.4999 13.3045 10.4998 13.1083 10.5257C11.7622 10.7029 10.7029 11.7622 10.5257 13.1083C10.4998 13.3045 10.4999 13.5254 10.5 13.8234C10.5 13.8404 10.5 13.8576 10.5 13.875V14.25C10.5 15.0785 9.82846 15.75 9 15.75Z" fill="#121F3E" stroke="#121F3E" stroke-width="1.5"/>
<path id="Vector_2" d="M1.5 9C1.5 13.1421 4.85786 16.5 9 16.5C10.2427 16.5 11.25 15.4927 11.25 14.25V13.875C11.25 13.5267 11.25 13.3526 11.2693 13.2063C11.4022 12.1967 12.1967 11.4022 13.2063 11.2693C13.3526 11.25 13.5267 11.25 13.875 11.25H14.25C15.4927 11.25 16.5 10.2427 16.5 9C16.5 4.85786 13.1421 1.5 9 1.5C4.85786 1.5 1.5 4.85786 1.5 9Z" stroke="#121F3E" stroke-width="1.5" stroke-linecap="round" stroke-linejoin="round"/>
<path id="Vector_3" d="M5.25 9.75C5.66421 9.75 6 9.41422 6 9C6 8.58578 5.66421 8.25 5.25 8.25C4.83579 8.25 4.5 8.58578 4.5 9C4.5 9.41422 4.83579 9.75 5.25 9.75Z" stroke="#121F3E" stroke-linecap="round" stroke-linejoin="round"/>
<path id="Vector_4" d="M12 6.75C12.4142 6.75 12.75 6.41421 12.75 6C12.75 5.58579 12.4142 5.25 12 5.25C11.5858 5.25 11.25 5.58579 11.25 6C11.25 6.41421 11.5858 6.75 12 6.75Z" stroke="#121F3E" stroke-linecap="round" stroke-linejoin="round"/>
<path id="Vector_5" d="M7.5 6C7.91422 6 8.25 5.66421 8.25 5.25C8.25 4.83579 7.91422 4.5 7.5 4.5C7.08579 4.5 6.75 4.83579 6.75 5.25C6.75 5.66421 7.08579 6 7.5 6Z" stroke="#121F3E" stroke-linecap="round" stroke-linejoin="round"/>
</g>
<defs>
<clipPath id="clip0_199_1704">
<rect width="18" height="18" fill="white"/>
</clipPath>
</defs>
</svg>
