<svg width="31" height="32" viewBox="0 0 31 32" fill="none" xmlns="http://www.w3.org/2000/svg">
<g id="pointinghand 1">
<g id="bundle-os-x-cursors">
<g id="Made-with-&#240;&#159;&#146;&#149;by-Azendoo-design-team---@azendoo">
<g id="pointinghand">
<path id="cursor" fill-rule="evenodd" clip-rule="evenodd" d="M6.27114 23.3033C5.73655 22.6276 5.08714 21.2459 3.93137 19.5687C3.27631 18.62 1.65184 16.8337 1.16808 15.9264C0.748313 15.1245 0.79349 14.765 0.893254 14.1005C1.0702 12.9184 2.28243 11.9979 3.57561 12.1221C4.55255 12.2144 5.38078 12.86 6.1262 13.4699C6.57608 13.837 7.12949 14.5504 7.46267 14.9532C7.76949 15.3221 7.84478 15.4746 8.17231 15.9113C8.60525 16.4892 8.74078 16.7753 8.57514 16.1391C8.44149 15.2054 8.22314 13.6111 7.9069 12.2012C7.66596 11.132 7.60761 10.9645 7.37796 10.1438C7.13514 9.27038 7.0109 8.65862 6.78314 7.7325C6.62502 7.07744 6.34078 5.73909 6.26361 4.98615C6.15631 3.9565 6.09984 2.27744 6.76055 1.50568C7.2782 0.901443 8.46596 0.718855 9.20196 1.09156C10.1657 1.57909 10.7135 2.97956 10.9638 3.53862C11.4137 4.5438 11.6923 5.70521 11.9351 7.22991C12.2438 9.17062 12.8123 11.8643 12.8311 12.4309C12.8763 11.7363 12.7031 10.2737 12.8236 9.60732C12.9328 9.00309 13.441 8.30097 14.0773 8.11085C14.6156 7.95085 15.2462 7.8925 15.8015 8.00733C16.3907 8.1278 17.0118 8.54944 17.2434 8.94662C17.9248 10.1212 17.938 12.5212 17.9662 12.3932C18.1281 11.6854 18.0998 10.0798 18.5008 9.41156C18.7643 8.97109 19.4363 8.57391 19.794 8.50991C20.3474 8.41203 21.0269 8.38191 21.6085 8.49485C22.0773 8.58709 22.7116 9.14427 22.8829 9.41156C23.2933 10.0591 23.5267 11.8906 23.5963 12.5325C23.6245 12.7979 23.7356 11.7946 24.1478 11.1471C24.9121 9.94427 27.617 9.71085 27.7205 12.3499C27.7676 13.581 27.7582 13.5245 27.7582 14.3527C27.7582 15.3259 27.7356 15.9113 27.6829 16.6153C27.6245 17.3683 27.4627 19.0699 27.2274 19.8944C27.0655 20.461 26.529 21.7353 26.0001 22.4996C26.0001 22.4996 23.9784 24.8525 23.7582 25.9123C23.5361 26.9701 23.6095 26.9777 23.5662 27.7287C23.5229 28.4779 23.794 29.4643 23.794 29.4643C23.794 29.4643 22.2843 29.66 21.4711 29.5301C20.7351 29.4116 19.8241 27.9471 19.5888 27.4991C19.265 26.8817 18.5742 27.0003 18.305 27.4558C17.8815 28.1767 16.9704 29.4699 16.3267 29.5509C15.0693 29.709 12.4603 29.6092 10.418 29.5885C10.418 29.5885 10.7662 27.6854 9.99067 27.0323C9.41655 26.5447 8.42831 25.5565 7.83725 25.037L6.27114 23.3033Z" fill="white"/>
<path id="cursor_2" fill-rule="evenodd" clip-rule="evenodd" d="M6.27114 23.3033C5.73655 22.6276 5.08714 21.2459 3.93137 19.5687C3.27631 18.62 1.65184 16.8337 1.16808 15.9264C0.748313 15.1245 0.79349 14.765 0.893254 14.1005C1.0702 12.9184 2.28243 11.9979 3.57561 12.1221C4.55255 12.2144 5.38078 12.86 6.1262 13.4699C6.57608 13.837 7.12949 14.5504 7.46267 14.9532C7.76949 15.3221 7.84478 15.4746 8.17231 15.9113C8.60525 16.4892 8.74078 16.7753 8.57514 16.1391C8.44149 15.2054 8.22314 13.6111 7.9069 12.2012C7.66596 11.132 7.60761 10.9645 7.37796 10.1438C7.13514 9.27038 7.0109 8.65862 6.78314 7.7325C6.62502 7.07744 6.34078 5.73909 6.26361 4.98615C6.15631 3.9565 6.09984 2.27744 6.76055 1.50568C7.2782 0.901443 8.46596 0.718855 9.20196 1.09156C10.1657 1.57909 10.7135 2.97956 10.9638 3.53862C11.4137 4.5438 11.6923 5.70521 11.9351 7.22991C12.2438 9.17062 12.8123 11.8643 12.8311 12.4309C12.8763 11.7363 12.7031 10.2737 12.8236 9.60732C12.9328 9.00309 13.441 8.30097 14.0773 8.11085C14.6156 7.95085 15.2462 7.8925 15.8015 8.00733C16.3907 8.1278 17.0118 8.54944 17.2434 8.94662C17.9248 10.1212 17.938 12.5212 17.9662 12.3932C18.1281 11.6854 18.0998 10.0798 18.5008 9.41156C18.7643 8.97109 19.4363 8.57391 19.794 8.50991C20.3474 8.41203 21.0269 8.38191 21.6085 8.49485C22.0773 8.58709 22.7116 9.14427 22.8829 9.41156C23.2933 10.0591 23.5267 11.8906 23.5963 12.5325C23.6245 12.7979 23.7356 11.7946 24.1478 11.1471C24.9121 9.94427 27.617 9.71085 27.7205 12.3499C27.7676 13.581 27.7582 13.5245 27.7582 14.3527C27.7582 15.3259 27.7356 15.9113 27.6829 16.6153C27.6245 17.3683 27.4627 19.0699 27.2274 19.8944C27.0655 20.461 26.529 21.7353 26.0001 22.4996C26.0001 22.4996 23.9784 24.8525 23.7582 25.9123C23.5361 26.9701 23.6095 26.9777 23.5662 27.7287C23.5229 28.4779 23.794 29.4643 23.794 29.4643C23.794 29.4643 22.2843 29.66 21.4711 29.5301C20.7351 29.4116 19.8241 27.9471 19.5888 27.4991C19.265 26.8817 18.5742 27.0003 18.305 27.4558C17.8815 28.1767 16.9704 29.4699 16.3267 29.5509C15.0693 29.709 12.4603 29.6092 10.418 29.5885C10.418 29.5885 10.7662 27.6854 9.99067 27.0323C9.41655 26.5447 8.42831 25.5565 7.83725 25.037L6.27114 23.3033Z" stroke="black" stroke-width="0.75" stroke-linecap="round" stroke-linejoin="round"/>
<path id="cursor_3" d="M21.7722 23.9706V17.4595" stroke="black" stroke-width="0.75" stroke-linecap="round"/>
<path id="cursor_4" d="M17.9781 23.9926L17.948 17.4552" stroke="black" stroke-width="0.75" stroke-linecap="round"/>
<path id="cursor_5" d="M14.2207 17.5147L14.2602 23.9636" stroke="black" stroke-width="0.75" stroke-linecap="round"/>
</g>
</g>
</g>
</g>
</svg>
