<svg width="48" height="48" viewBox="0 0 48 48" fill="none" xmlns="http://www.w3.org/2000/svg">
<g id="shield-tick.1 1">
<path id="Vector" d="M27.3055 29.8649C26.2549 30.9594 25.098 31.9372 24 32.7647C22.902 31.9372 21.7451 30.9594 20.6945 29.8649C18.2884 27.3582 17.5 25.3703 17.5 23.9998V16.5832L24 14.1457L30.5 16.5833V23.9998C30.5 25.3703 29.7117 27.3582 27.3055 29.8649ZM21.5732 13.2363C21.5726 13.236 21.574 13.2365 21.5775 13.2378C21.5751 13.237 21.5737 13.2364 21.5732 13.2363Z" stroke="#3C6CEB" stroke-opacity="0.1" stroke-width="19" stroke-linecap="round" stroke-linejoin="round"/>
<path id="Vector_2" d="M22.604 43.2294C23.0468 43.4878 23.2682 43.617 23.5806 43.684C23.8232 43.736 24.1768 43.736 24.4194 43.684C24.7318 43.617 24.9532 43.4878 25.396 43.2294C29.292 40.9566 40 33.8166 40 23.9998V14.4349C40 12.8359 40 12.0364 39.7384 11.3491C39.5074 10.742 39.132 10.2003 38.6446 9.77081C38.093 9.28463 37.3444 9.00391 35.8472 8.44245L25.1236 4.42109C24.7078 4.26517 24.5 4.18721 24.286 4.15631C24.0964 4.12889 23.9036 4.12889 23.714 4.15631C23.5 4.18721 23.2922 4.26517 22.8764 4.42109L12.1528 8.44245C10.6556 9.00391 9.907 9.28463 9.35532 9.77081C8.86796 10.2003 8.49254 10.742 8.26152 11.3491C8 12.0364 8 12.8359 8 14.4349V23.9998C8 33.8166 18.7079 40.9566 22.604 43.2294Z" stroke="#121F3E" stroke-width="3" stroke-linecap="round" stroke-linejoin="round"/>
<path id="Vector_3" d="M18 23L22 27L31 18" stroke="#3C6CEB" stroke-width="3" stroke-linecap="round" stroke-linejoin="round"/>
</g>
</svg>
