<svg width="20" height="20" viewBox="0 0 20 20" fill="none" xmlns="http://www.w3.org/2000/svg">
<g id="shopping-cart-01 1">
<path id="Vector" d="M1.66669 1.66666H2.75515C2.96017 1.66666 3.06268 1.66666 3.14517 1.70436C3.21787 1.73758 3.27948 1.79101 3.32265 1.85828C3.37163 1.93461 3.38613 2.03609 3.41512 2.23904L3.80955 4.99999M3.80955 4.99999L4.68612 11.4428C4.79736 12.2604 4.85298 12.6692 5.04844 12.9769C5.22067 13.2481 5.46759 13.4637 5.75948 13.5978C6.09074 13.75 6.5033 13.75 7.32845 13.75H14.46C15.2454 13.75 15.6382 13.75 15.9592 13.6087C16.2421 13.4841 16.4849 13.2832 16.6603 13.0285C16.8591 12.7397 16.9326 12.3539 17.0796 11.5823L18.1826 5.7914C18.2344 5.51983 18.2602 5.38405 18.2227 5.27791C18.1899 5.1848 18.1249 5.10639 18.0396 5.05667C17.9424 4.99999 17.8042 4.99999 17.5277 4.99999H3.80955ZM8.33335 17.5C8.33335 17.9602 7.96025 18.3333 7.50002 18.3333C7.03979 18.3333 6.66669 17.9602 6.66669 17.5C6.66669 17.0397 7.03979 16.6667 7.50002 16.6667C7.96025 16.6667 8.33335 17.0397 8.33335 17.5ZM15 17.5C15 17.9602 14.6269 18.3333 14.1667 18.3333C13.7064 18.3333 13.3334 17.9602 13.3334 17.5C13.3334 17.0397 13.7064 16.6667 14.1667 16.6667C14.6269 16.6667 15 17.0397 15 17.5Z" stroke="#96A0B5" stroke-width="1.5" stroke-linecap="round" stroke-linejoin="round"/>
</g>
</svg>
