<svg width="20" height="20" viewBox="0 0 20 20" fill="none" xmlns="http://www.w3.org/2000/svg">
<g id="star-01.3 2">
<g id="Vector" opacity="0.12">
<mask id="path-1-inside-1_190_28" fill="white">
<path d="M9.40227 2.87787C9.59427 2.48875 9.69035 2.2942 9.82068 2.23203C9.9341 2.17795 10.0659 2.17795 10.1794 2.23203C10.3098 2.2942 10.4058 2.48875 10.5979 2.87787L12.4201 6.5695C12.4768 6.68438 12.5051 6.74182 12.5465 6.78642C12.5833 6.82591 12.6273 6.8579 12.6761 6.88062C12.7314 6.90629 12.7947 6.91556 12.9214 6.93408L16.9975 7.52986C17.4268 7.5926 17.6414 7.62396 17.7407 7.72881C17.8271 7.82001 17.8677 7.94536 17.8513 8.06991C17.8324 8.21309 17.677 8.36444 17.3663 8.66711L14.4179 11.5388C14.326 11.6283 14.28 11.6731 14.2504 11.7264C14.2241 11.7734 14.2073 11.8253 14.2008 11.8789C14.1934 11.9394 14.2043 12.0026 14.2259 12.129L14.9217 16.1852C14.995 16.613 15.0317 16.8269 14.9628 16.9539C14.9028 17.0643 14.7962 17.1418 14.6726 17.1647C14.5305 17.191 14.3384 17.0899 13.9543 16.8879L10.3104 14.9716C10.1968 14.9119 10.14 14.8821 10.0802 14.8704C10.0273 14.8599 9.97277 14.8599 9.91985 14.8704C9.86002 14.8821 9.80327 14.9119 9.68977 14.9716L6.04578 16.8879C5.66162 17.0899 5.46953 17.191 5.32749 17.1647C5.20392 17.1418 5.09728 17.0643 5.0373 16.9539C4.96835 16.8269 5.00504 16.613 5.07841 16.1852L5.77409 12.129C5.79578 12.0026 5.80663 11.9394 5.79928 11.8789C5.79278 11.8253 5.77594 11.7734 5.74969 11.7264C5.72003 11.6731 5.67408 11.6283 5.58218 11.5388L2.63382 8.66711C2.32307 8.36444 2.16769 8.21309 2.14879 8.06991C2.13234 7.94536 2.17298 7.82001 2.25939 7.72881C2.35872 7.62396 2.57333 7.5926 3.00255 7.52986L7.07861 6.93408C7.20537 6.91556 7.26875 6.90629 7.32395 6.88062C7.37282 6.8579 7.41682 6.82591 7.45351 6.78642C7.49494 6.74182 7.52329 6.68438 7.57999 6.5695L9.40227 2.87787Z"/>
</mask>
<path d="M9.40227 2.87787C9.59427 2.48875 9.69035 2.2942 9.82068 2.23203C9.9341 2.17795 10.0659 2.17795 10.1794 2.23203C10.3098 2.2942 10.4058 2.48875 10.5979 2.87787L12.4201 6.5695C12.4768 6.68438 12.5051 6.74182 12.5465 6.78642C12.5833 6.82591 12.6273 6.8579 12.6761 6.88062C12.7314 6.90629 12.7947 6.91556 12.9214 6.93408L16.9975 7.52986C17.4268 7.5926 17.6414 7.62396 17.7407 7.72881C17.8271 7.82001 17.8677 7.94536 17.8513 8.06991C17.8324 8.21309 17.677 8.36444 17.3663 8.66711L14.4179 11.5388C14.326 11.6283 14.28 11.6731 14.2504 11.7264C14.2241 11.7734 14.2073 11.8253 14.2008 11.8789C14.1934 11.9394 14.2043 12.0026 14.2259 12.129L14.9217 16.1852C14.995 16.613 15.0317 16.8269 14.9628 16.9539C14.9028 17.0643 14.7962 17.1418 14.6726 17.1647C14.5305 17.191 14.3384 17.0899 13.9543 16.8879L10.3104 14.9716C10.1968 14.9119 10.14 14.8821 10.0802 14.8704C10.0273 14.8599 9.97277 14.8599 9.91985 14.8704C9.86002 14.8821 9.80327 14.9119 9.68977 14.9716L6.04578 16.8879C5.66162 17.0899 5.46953 17.191 5.32749 17.1647C5.20392 17.1418 5.09728 17.0643 5.0373 16.9539C4.96835 16.8269 5.00504 16.613 5.07841 16.1852L5.77409 12.129C5.79578 12.0026 5.80663 11.9394 5.79928 11.8789C5.79278 11.8253 5.77594 11.7734 5.74969 11.7264C5.72003 11.6731 5.67408 11.6283 5.58218 11.5388L2.63382 8.66711C2.32307 8.36444 2.16769 8.21309 2.14879 8.06991C2.13234 7.94536 2.17298 7.82001 2.25939 7.72881C2.35872 7.62396 2.57333 7.5926 3.00255 7.52986L7.07861 6.93408C7.20537 6.91556 7.26875 6.90629 7.32395 6.88062C7.37282 6.8579 7.41682 6.82591 7.45351 6.78642C7.49494 6.74182 7.52329 6.68438 7.57999 6.5695L9.40227 2.87787Z" fill="#121F3E"/>
<path d="M9.40227 2.87787L10.7473 3.54182L10.7474 3.54161L9.40227 2.87787ZM9.82068 2.23203L9.17505 0.878089L9.17491 0.878155L9.82068 2.23203ZM10.1794 2.23203L9.53372 3.58597L9.53391 3.58606L10.1794 2.23203ZM10.5979 2.87787L11.9429 2.21393L11.9429 2.2139L10.5979 2.87787ZM12.4201 6.5695L13.7653 5.90592L13.7652 5.90556L12.4201 6.5695ZM12.5465 6.78642L11.4474 7.80713L11.4485 7.8084L12.5465 6.78642ZM12.6761 6.88062L12.0432 8.24058L12.0441 8.241L12.6761 6.88062ZM12.9214 6.93408L13.1384 5.44985L13.1384 5.44985L12.9214 6.93408ZM16.9975 7.52986L16.7806 9.01409L16.7806 9.0141L16.9975 7.52986ZM17.7407 7.72881L16.6518 8.76047L16.6518 8.76048L17.7407 7.72881ZM17.8513 8.06991L19.3383 8.26639L19.3384 8.26592L17.8513 8.06991ZM17.3663 8.66711L18.4128 9.74166L18.4129 9.74165L17.3663 8.66711ZM14.4179 11.5388L13.3713 10.4642L13.3709 10.4646L14.4179 11.5388ZM14.2504 11.7264L15.5605 12.4568L15.5607 12.4564L14.2504 11.7264ZM14.2008 11.8789L12.7117 11.6982L12.7117 11.6984L14.2008 11.8789ZM14.2259 12.129L12.7475 12.3824L12.7475 12.3826L14.2259 12.129ZM14.9217 16.1852L16.4001 15.9318L16.4001 15.9316L14.9217 16.1852ZM14.9628 16.9539L16.2807 17.67L16.281 17.6696L14.9628 16.9539ZM14.6726 17.1647L14.946 18.6396L14.9461 18.6395L14.6726 17.1647ZM13.9543 16.8879L13.2561 18.2155L13.2562 18.2156L13.9543 16.8879ZM10.3104 14.9716L11.0085 13.644L11.0079 13.6437L10.3104 14.9716ZM10.0802 14.8704L9.79047 16.3421L9.79114 16.3422L10.0802 14.8704ZM9.91985 14.8704L10.2089 16.3422L10.2096 16.3421L9.91985 14.8704ZM9.68977 14.9716L8.99179 13.6439L8.99159 13.644L9.68977 14.9716ZM6.04578 16.8879L6.74388 18.2156L6.74396 18.2155L6.04578 16.8879ZM5.32749 17.1647L5.05398 18.6395L5.05405 18.6396L5.32749 17.1647ZM5.0373 16.9539L6.35537 16.2378L6.35535 16.2378L5.0373 16.9539ZM5.07841 16.1852L3.6 15.9316L3.59999 15.9317L5.07841 16.1852ZM5.77409 12.129L4.29568 11.8754L4.29568 11.8755L5.77409 12.129ZM5.79928 11.8789L4.3102 12.0595L4.31021 12.0596L5.79928 11.8789ZM5.74969 11.7264L4.43924 12.4562L4.43955 12.4568L5.74969 11.7264ZM5.58218 11.5388L4.53558 12.6133L4.53569 12.6134L5.58218 11.5388ZM2.63382 8.66711L3.68041 7.59256H3.68041L2.63382 8.66711ZM2.14879 8.06991L3.63589 7.87361L3.63588 7.87352L2.14879 8.06991ZM2.25939 7.72881L3.34827 8.76048L3.34831 8.76043L2.25939 7.72881ZM3.00255 7.52986L3.21948 9.01409L3.2195 9.01409L3.00255 7.52986ZM7.07861 6.93408L6.8617 5.44985L6.86167 5.44985L7.07861 6.93408ZM7.32395 6.88062L7.95639 8.24078L7.95646 8.24074L7.32395 6.88062ZM7.45351 6.78642L8.5523 7.80753L8.55247 7.80735L7.45351 6.78642ZM7.57999 6.5695L6.23494 5.90556L6.23492 5.9056L7.57999 6.5695ZM10.7474 3.54161C10.7971 3.44102 10.833 3.36826 10.8641 3.30789C10.8956 3.24656 10.9102 3.22162 10.9139 3.21554C10.9191 3.20698 10.8922 3.25354 10.8326 3.31857C10.7681 3.38883 10.6489 3.4989 10.4665 3.5859L9.17491 0.878155C8.69771 1.10577 8.45109 1.49268 8.3553 1.64915C8.24673 1.82649 8.13994 2.04627 8.05711 2.21414L10.7474 3.54161ZM10.4663 3.58597C10.1713 3.72663 9.8287 3.72663 9.53372 3.58597L10.825 0.878089C10.3032 0.62926 9.69686 0.62926 9.17505 0.878089L10.4663 3.58597ZM9.53391 3.58606C9.35146 3.49909 9.23215 3.38901 9.16759 3.31866C9.10786 3.25358 9.08093 3.20697 9.08618 3.21554C9.0899 3.22163 9.10444 3.24657 9.13604 3.30796C9.16714 3.36839 9.20311 3.44117 9.25281 3.54184L11.9429 2.2139C11.8601 2.04623 11.7533 1.82641 11.6448 1.64915C11.549 1.49266 11.3023 1.1056 10.8248 0.877995L9.53391 3.58606ZM9.25279 3.54181L11.075 7.23345L13.7652 5.90556L11.9429 2.21393L9.25279 3.54181ZM11.0749 7.23309C11.091 7.26582 11.2217 7.56408 11.4474 7.80713L13.6457 5.76571C13.7332 5.85993 13.7818 5.94311 13.7955 5.9674C13.8014 5.97781 13.8025 5.98056 13.7959 5.96737C13.789 5.95391 13.7805 5.93674 13.7653 5.90592L11.0749 7.23309ZM11.4485 7.8084C11.6168 7.98916 11.8186 8.13605 12.0432 8.24058L13.309 5.52067C13.4359 5.57974 13.5498 5.66265 13.6445 5.76445L11.4485 7.8084ZM12.0441 8.241C12.3446 8.38057 12.6679 8.41295 12.7045 8.41831L13.1384 5.44985C13.1044 5.44488 13.0854 5.44209 13.0706 5.43975C13.056 5.43746 13.0589 5.43769 13.0707 5.44007C13.0981 5.44564 13.1919 5.46628 13.3081 5.52025L12.0441 8.241ZM12.7045 8.41831L16.7806 9.01409L17.2145 6.04563L13.1384 5.44985L12.7045 8.41831ZM16.7806 9.0141C16.8916 9.03032 16.9719 9.0421 17.0389 9.05305C17.107 9.06417 17.1352 9.07031 17.1421 9.07197C17.1519 9.07431 17.0992 9.06306 17.0189 9.02632C16.9322 8.98661 16.7907 8.9071 16.6518 8.76047L18.8296 6.69714C18.466 6.31336 18.022 6.19802 17.8435 6.15512C17.6414 6.10653 17.3995 6.07267 17.2144 6.04563L16.7806 9.0141ZM16.6518 8.76048C16.4268 8.52294 16.3215 8.19704 16.3641 7.87391L19.3384 8.26592C19.4138 7.69367 19.2274 7.11708 18.8296 6.69713L16.6518 8.76048ZM16.3642 7.87344C16.3906 7.67323 16.4585 7.5259 16.5054 7.44285C16.5489 7.36601 16.5849 7.32603 16.5784 7.33363C16.5737 7.33903 16.5545 7.36054 16.5059 7.40948C16.4581 7.45766 16.4 7.5143 16.3197 7.59256L18.4129 9.74165C18.5469 9.61113 18.7229 9.44173 18.858 9.28377C18.9774 9.14429 19.2691 8.7904 19.3383 8.26639L16.3642 7.87344ZM16.3197 7.59255L13.3713 10.4642L15.4644 12.6133L18.4128 9.74166L16.3197 7.59255ZM13.3709 10.4646C13.3446 10.4902 13.1014 10.7066 12.94 10.9963L15.5607 12.4564C15.4982 12.5686 15.4342 12.6405 15.4155 12.6609C15.4074 12.6697 15.4052 12.6715 15.4157 12.6611C15.4264 12.6504 15.4401 12.637 15.4648 12.613L13.3709 10.4646ZM12.9402 10.9959C12.8188 11.2136 12.7415 11.4523 12.7117 11.6982L15.6899 12.0595C15.673 12.1983 15.6294 12.3333 15.5605 12.4568L12.9402 10.9959ZM12.7117 11.6984C12.6717 12.0279 12.7413 12.3462 12.7475 12.3824L15.7044 11.8756C15.6986 11.8417 15.6953 11.8228 15.693 11.8079C15.6906 11.7933 15.6913 11.7962 15.6927 11.808C15.6959 11.8357 15.7053 11.9316 15.6899 12.0594L12.7117 11.6984ZM12.7475 12.3826L13.4433 16.4388L16.4001 15.9316L15.7043 11.8754L12.7475 12.3826ZM13.4432 16.4386C13.4622 16.5493 13.4759 16.6293 13.4862 16.6965C13.4968 16.7647 13.4997 16.7935 13.5002 16.8007C13.501 16.8108 13.4954 16.7573 13.5055 16.6696C13.5163 16.5749 13.5481 16.4157 13.6446 16.2381L16.281 17.6696C16.5333 17.2049 16.5054 16.7468 16.4909 16.564C16.4745 16.3568 16.4317 16.1162 16.4001 15.9318L13.4432 16.4386ZM13.6448 16.2377C13.8005 15.9511 14.0774 15.7495 14.3991 15.6898L14.9461 18.6395C15.515 18.5341 16.005 18.1774 16.2807 17.67L13.6448 16.2377ZM14.3993 15.6898C14.5981 15.653 14.7593 15.672 14.8528 15.6909C14.9394 15.7085 14.9885 15.7304 14.9792 15.7265C14.9725 15.7238 14.9461 15.7121 14.8844 15.681C14.8237 15.6503 14.7518 15.6126 14.6524 15.5603L13.2562 18.2156C13.4217 18.3026 13.6373 18.4177 13.8292 18.4974C13.9986 18.5677 14.4258 18.736 14.946 18.6396L14.3993 15.6898ZM14.6525 15.5603L11.0085 13.644L9.61216 16.2992L13.2561 18.2155L14.6525 15.5603ZM11.0079 13.6437C10.9756 13.6267 10.6945 13.4624 10.3692 13.3985L9.79114 16.3422C9.66517 16.3175 9.57704 16.2789 9.55178 16.2674C9.54097 16.2624 9.5385 16.2609 9.55173 16.2677C9.56524 16.2746 9.58226 16.2835 9.61278 16.2995L11.0079 13.6437ZM10.3699 13.3986C10.1257 13.3505 9.87436 13.3505 9.63014 13.3986L10.2096 16.3421C10.0712 16.3694 9.92886 16.3694 9.79047 16.3421L10.3699 13.3986ZM9.6308 13.3985C9.30531 13.4624 9.02437 13.6268 8.99179 13.6439L10.3877 16.2993C10.4182 16.2833 10.4352 16.2744 10.4486 16.2675C10.4618 16.2608 10.4593 16.2623 10.4484 16.2673C10.423 16.2789 10.3349 16.3175 10.2089 16.3422L9.6308 13.3985ZM8.99159 13.644L5.34761 15.5603L6.74396 18.2155L10.3879 16.2992L8.99159 13.644ZM5.34769 15.5603C5.24828 15.6126 5.17638 15.6503 5.11565 15.681C5.05397 15.7121 5.0275 15.7238 5.02085 15.7265C5.01151 15.7304 5.06065 15.7085 5.14718 15.691C5.2407 15.672 5.40203 15.6529 5.60094 15.6898L5.05405 18.6396C5.57432 18.736 6.00155 18.5676 6.17083 18.4974C6.36274 18.4177 6.57838 18.3026 6.74388 18.2156L5.34769 15.5603ZM5.601 15.6898C5.92244 15.7494 6.19951 15.9509 6.35537 16.2378L3.71924 17.6699C3.99506 18.1776 4.4854 18.5341 5.05398 18.6395L5.601 15.6898ZM6.35535 16.2378C6.4519 16.4155 6.4837 16.5748 6.49456 16.6696C6.50462 16.7573 6.49901 16.8108 6.49981 16.8008C6.50037 16.7936 6.50328 16.7649 6.51381 16.6966C6.52417 16.6294 6.53785 16.5494 6.55683 16.4387L3.59999 15.9317C3.56836 16.1161 3.52557 16.3567 3.50917 16.564C3.49469 16.7468 3.4667 17.205 3.71925 17.6699L6.35535 16.2378ZM6.55682 16.4388L7.25251 12.3826L4.29568 11.8755L3.6 15.9316L6.55682 16.4388ZM7.2525 12.3826C7.25867 12.3467 7.32838 12.028 7.28836 11.6982L4.31021 12.0596C4.29469 11.9316 4.30421 11.8356 4.30739 11.8079C4.30876 11.796 4.30946 11.7931 4.30712 11.8077C4.30473 11.8226 4.3015 11.8415 4.29568 11.8754L7.2525 12.3826ZM7.28837 11.6982C7.25852 11.4521 7.18114 11.2135 7.05983 10.9959L4.43955 12.4568C4.37075 12.3334 4.32705 12.1984 4.3102 12.0595L7.28837 11.6982ZM7.06014 10.9965C6.89869 10.7066 6.65575 10.4905 6.62866 10.4641L4.53569 12.6134C4.56023 12.6373 4.57394 12.6507 4.58454 12.6613C4.59495 12.6716 4.59266 12.6697 4.58454 12.6608C4.56561 12.6402 4.50168 12.5683 4.43924 12.4562L7.06014 10.9965ZM6.62877 10.4642L3.68041 7.59256L1.58722 9.74165L4.53558 12.6133L6.62877 10.4642ZM3.68041 7.59256C3.60004 7.51428 3.54195 7.45764 3.49411 7.40945C3.4455 7.36049 3.42628 7.33898 3.42165 7.33357C3.41514 7.32596 3.45114 7.36595 3.4946 7.44281C3.54157 7.52588 3.60945 7.67329 3.63589 7.87361L0.661693 8.26622C0.730891 8.79042 1.0228 9.14441 1.14207 9.28383C1.27719 9.44176 1.45326 9.61117 1.58723 9.74165L3.68041 7.59256ZM3.63588 7.87352C3.67865 8.19735 3.57302 8.52326 3.34827 8.76048L1.17052 6.69713C0.772929 7.11677 0.586038 7.69336 0.661705 8.26631L3.63588 7.87352ZM3.34831 8.76043C3.20936 8.9071 3.06791 8.98662 2.98112 9.02633C2.90083 9.06306 2.84821 9.07431 2.85796 9.07197C2.86488 9.07031 2.89307 9.06417 2.96115 9.05305C3.02818 9.0421 3.10846 9.03032 3.21948 9.01409L2.78562 6.04563C2.60061 6.07267 2.35863 6.10653 2.15656 6.15512C1.97817 6.19801 1.5341 6.31335 1.17047 6.69718L3.34831 8.76043ZM3.2195 9.01409L7.29555 8.41831L6.86167 5.44985L2.78561 6.04563L3.2195 9.01409ZM7.29552 8.41831C7.33177 8.41302 7.65566 8.38061 7.95639 8.24078L6.69151 5.52047C6.80804 5.46629 6.90212 5.44562 6.92946 5.44006C6.94118 5.43768 6.94414 5.43745 6.92954 5.43975C6.91465 5.44209 6.8957 5.44488 6.8617 5.44985L7.29552 8.41831ZM7.95646 8.24074C8.18124 8.13621 8.38358 7.98908 8.5523 7.80753L6.35472 5.76532C6.45005 5.66273 6.5644 5.57958 6.69144 5.5205L7.95646 8.24074ZM8.55247 7.80735C8.7782 7.56436 8.9089 7.26616 8.92507 7.23341L6.23492 5.9056C6.2197 5.93643 6.2112 5.9536 6.20438 5.96706C6.19769 5.98025 6.19882 5.9775 6.20469 5.96709C6.21839 5.94282 6.26707 5.85967 6.35455 5.76549L8.55247 7.80735ZM8.92505 7.23345L10.7473 3.54182L8.05721 2.21392L6.23494 5.90556L8.92505 7.23345Z" fill="#121F3E" mask="url(#path-1-inside-1_190_28)"/>
</g>
<path id="Vector_2" d="M9.40227 2.87787C9.59427 2.48875 9.69035 2.2942 9.82068 2.23203C9.9341 2.17795 10.0659 2.17795 10.1794 2.23203C10.3098 2.2942 10.4058 2.48875 10.5979 2.87787L12.4201 6.5695C12.4768 6.68438 12.5051 6.74182 12.5465 6.78642C12.5833 6.82591 12.6273 6.8579 12.6761 6.88062C12.7314 6.90629 12.7947 6.91556 12.9214 6.93408L16.9975 7.52986C17.4268 7.5926 17.6414 7.62396 17.7407 7.72881C17.8271 7.82001 17.8677 7.94536 17.8513 8.06991C17.8324 8.21309 17.677 8.36444 17.3663 8.66711L14.4179 11.5388C14.326 11.6283 14.28 11.6731 14.2504 11.7264C14.2241 11.7734 14.2073 11.8253 14.2008 11.8789C14.1934 11.9394 14.2043 12.0026 14.2259 12.129L14.9217 16.1852C14.995 16.613 15.0317 16.8269 14.9628 16.9539C14.9028 17.0643 14.7962 17.1418 14.6726 17.1647C14.5305 17.191 14.3384 17.0899 13.9543 16.8879L10.3104 14.9716C10.1968 14.9119 10.14 14.8821 10.0802 14.8704C10.0273 14.8599 9.97277 14.8599 9.91985 14.8704C9.86002 14.8821 9.80327 14.9119 9.68977 14.9716L6.04578 16.8879C5.66162 17.0899 5.46953 17.191 5.32749 17.1647C5.20392 17.1418 5.09728 17.0643 5.0373 16.9539C4.96835 16.8269 5.00504 16.613 5.07841 16.1852L5.77409 12.129C5.79578 12.0026 5.80663 11.9394 5.79928 11.8789C5.79278 11.8253 5.77594 11.7734 5.74969 11.7264C5.72003 11.6731 5.67408 11.6283 5.58218 11.5388L2.63382 8.66711C2.32307 8.36444 2.16769 8.21309 2.14879 8.06991C2.13234 7.94536 2.17298 7.82001 2.25939 7.72881C2.35872 7.62396 2.57333 7.5926 3.00255 7.52986L7.07861 6.93408C7.20537 6.91556 7.26875 6.90629 7.32395 6.88062C7.37282 6.8579 7.41682 6.82591 7.45351 6.78642C7.49494 6.74182 7.52329 6.68438 7.57999 6.5695L9.40227 2.87787Z" stroke="#121F3E" stroke-width="1.5" stroke-linecap="round" stroke-linejoin="round"/>
</g>
</svg>
