<svg width="18" height="18" viewBox="0 0 18 18" fill="none" xmlns="http://www.w3.org/2000/svg">
<g id="sun-setting-03.3 1" clip-path="url(#clip0_199_1749)">
<path id="Vector" opacity="0.12" d="M9 6C6.92894 6 5.25 7.67895 5.25 9.75H12.75C12.75 7.67895 11.0711 6 9 6Z" fill="#121F3E"/>
<path id="Vector_2" d="M6.04505 15.4344C6.95255 15.8469 8.10754 15.8469 9.01507 15.4344C9.92257 15.0219 11.0776 15.0219 11.9851 15.4344C12.8926 15.8469 14.0476 15.8469 14.9551 15.4344M10.5 2V3.5M4.5 9.5H3M6.23559 5.23559L5.17492 4.17492M14.7641 5.23559L15.8249 4.17492M18 9.5H16.5M6.75 9.5C6.75 7.42895 8.42893 5.75 10.5 5.75C12.571 5.75 14.25 7.42895 14.25 9.5M3.07508 12.8094C3.98258 12.3969 5.13758 12.3969 6.04508 12.8094C6.95258 13.2219 8.10757 13.2219 9.01507 12.8094C9.92257 12.3969 11.0776 12.3969 11.9851 12.8094C12.8926 13.2219 14.0476 13.2219 14.9551 12.8094C15.8626 12.3969 17.0176 12.3969 17.9251 12.8094" stroke="#121F3E" stroke-width="1.5" stroke-linecap="round" stroke-linejoin="round"/>
</g>
<defs>
<clipPath id="clip0_199_1749">
<rect width="18" height="18" fill="white"/>
</clipPath>
</defs>
</svg>
